# xmcd
#
# Track frame offsets:
#	150
#	12165
#	22005
#	32648
#	45338
#	55168
#	66105
#	73838
#	83938
#	96220
#
# Disc length: 1408 seconds
#
# Revision: 2
# Processed by: cddbd v1.4PL0 Copyright (c) Steve Scherf et al.
# Submitted via: dBpowerAMP V4.0
#
DISCID=7d057e0a
DTITLE=JohnnY Cash - Golden Hits
DYEAR=1900
DGENRE=country
TTITLE0=You're The Nearest To Heaven
TTITLE1=Rock Island Line
TTITLE2=Cold,Cold Heart
TTITLE3=Folsom Prison Blues
TTITLE4=Ballad Of A Teenage Queen
TTITLE5=I Love You Because
TTITLE6=Hey Good Lookin'
TTITLE7=Straight As In Love
TTITLE8=Next In Line
TTITLE9=Just About Time
EXTD=
EXTT0=
EXTT1=
EXTT2=
EXTT3=
EXTT4=
EXTT5=
EXTT6=
EXTT7=
EXTT8=
EXTT9=
PLAYORDER=
